<svg
  id="Layer_1"
  data-name="Layer 1"
  xmlns="http://www.w3.org/2000/svg"
  viewBox="57.91890346180736 12.269000000000005 143.58189786406697 36.15633225085741"
>
  <path
    fill="currentColor"
    d="M76.737,14.705a7.21,7.21,0,0,1-.5,2.131.448.448,0,0,1-.426.061c-.463-.195-.1-.828-.646-1.011a8.073,8.073,0,0,0-5.114-.986c-2.533.292-5.224,1.461-6.3,4.043a8.1,8.1,0,0,0-.06,5.539,6.759,6.759,0,0,0,6.173,4.385,8.6,8.6,0,0,0,3.519-.524l.037-.073a40.339,40.339,0,0,0-.146-4.287c-.049-.255-.147-.572-.451-.657a16.2,16.2,0,0,0-2.046-.073,2.573,2.573,0,0,1-.024-.8l7.586-.012.037.024c.024.317.012.488.012.768l-.049.036a6.769,6.769,0,0,0-1.583.085l-.073.1.025,3.6a1.478,1.478,0,0,0,.353.925.458.458,0,0,1-.012.378,5.017,5.017,0,0,1-1.766.67,28.482,28.482,0,0,1-6.113.852c-3.531-.024-7.221-1.254-8.73-4.651a7.568,7.568,0,0,1,.852-7.367c2.764-3.239,6.685-4.092,10.874-4.006A15.551,15.551,0,0,1,76.737,14.705Z"
  />
  <path
    fill="currentColor"
    d="M137.79,14.34v.742a8.058,8.058,0,0,0-1.534.062c-.307.053,1.948,4.176,1.948,4.176,1.06,2.046,2.034,4.116,3.166,6.125l.048-.013s4.571-9.512,4.541-10.161c-.361-.383-2.169-.149-2.169-.149,0-.222.016-.517,0-.782l.048-.024c1.754-.025,3.623.011,5.414,0a7.057,7.057,0,0,1,.018.8c-.278.018-.926.012-1.389.025a1.872,1.872,0,0,0-.462.681l-4.188,8.67-2.595,5.248c-.072.11-.158.244-.3.244-.267.024-.426-.231-.523-.439l-2.91-5.7-2-3.933a38.712,38.712,0,0,0-2.423-4.408c-.426-.512-1.12-.354-1.729-.414.024-.308,0-.475,0-.816l7,.012Z"
  />
  <path
    fill="currentColor"
    d="M97.973,24.653c-.524-1.339-1.1-2.654-1.681-3.969-.73,1.241-1.3,2.581-1.936,3.884v.1C95.55,24.69,96.792,24.7,97.973,24.653Zm.535-6.673c.256.366-.389.439-.352.792.5,1.534,1.193,3,1.814,4.481l1.863,4.1c.34.584.6,1.619,1.534,1.473a12.7,12.7,0,0,0,1.547-.037.188.188,0,0,0,.11-.146l-.013-5.309a29.617,29.617,0,0,0-.146-3.458,1.417,1.417,0,0,0-.841-.962,4.7,4.7,0,0,0-.937-.073v-.572c1.254-.061,2.4.024,3.677,0l4.822,4.529,3.6,3.349.062-.073-.037-5.041a10.547,10.547,0,0,0-.268-1.936c-.122-.326-.928-.235-1.568-.235v-.608l4.018,0a3.8,3.8,0,0,1,0,.609,2.644,2.644,0,0,0-1.184.074c-.17.076-.023,10.508-.023,10.508a.238.238,0,0,1-.172.182c-.146.037-.243-.073-.365-.109l-1.206-1.132-5.163-4.822c-1.046-.938-2.179-2.107-3.312-3.081l-.036.048.036,6.271.159,1.535a.746.746,0,0,0,.28.438,7.032,7.032,0,0,0,1.351.086,1.178,1.178,0,0,1,0,.584H98.508l-.073-.036a2.094,2.094,0,0,1,0-.548c.4-.074.877.024,1.255-.086a.17.17,0,0,0,.036-.207c-.4-1.047-.877-2.07-1.315-3.105l-.073-.049-4.42.012a12.141,12.141,0,0,0-1.169,3.094.372.372,0,0,0,.17.231,6.942,6.942,0,0,0,1.6.073,1.913,1.913,0,0,1,.012.585c-1.388.072-2.813,0-4.3,0-.086-.2,0-.366-.013-.561.451-.109,1.169.146,1.291-.5L94.089,23.2l2.52-4.968a9.563,9.563,0,0,1,1.607-.316A.4.4,0,0,1,98.508,17.98Z"
  />
  <path
    fill="currentColor"
    d="M149.565,24.738c-.5-1.327-1.072-2.642-1.644-3.957l-.049.036c-.681,1.292-1.339,2.594-1.911,3.921C147.227,24.763,148.311,24.8,149.565,24.738Zm.572-6.685a.238.238,0,0,1,.012.293c-.122.134-.365.256-.365.462a15.782,15.782,0,0,0,1,2.692l.779,1.826,1.95,4.323c.279.511.535,1.376,1.314,1.278a7.389,7.389,0,0,0,1.718-.06c.133-.086.1-.3.1-.427l-.013-7.659a6.9,6.9,0,0,0-.159-1.534c-.121-.411-1.308-.274-1.594-.3v-.561l5.455-.024c0,.326-.009.585-.009.585a3.178,3.178,0,0,0-1.136.1l-.06.182.049,8c.121.524-.049,1.17.377,1.559l.28.049a14.529,14.529,0,0,0,4.761-.438,1.67,1.67,0,0,0,.852-.658.483.483,0,0,1,.39-.037c.171.171-.013.378-.013.573a11.877,11.877,0,0,1-.486,1.29l-15.282-.024L150,29.487v-.523l.061-.037a5.043,5.043,0,0,0,1.23-.073l.024-.134c-.4-1.071-.864-2.119-1.315-3.153l-.1-.061h-4.335a16.666,16.666,0,0,0-1.132,2.63c-.013.231-.183.548.084.694a6.559,6.559,0,0,0,1.626.1c0,.259-.006.378.007.56l-4.3.025v-.577c.45-.086,1.083.126,1.253-.47l2.326-4.64,2.8-5.516a13.692,13.692,0,0,1,1.6-.316A.434.434,0,0,1,150.137,18.053Z"
  />
  <path
    fill="currentColor"
    d="M85.078,20.379c-.707-1.181-3.617-1.352-3.629-1.23l.073,4.591c1.364.049,2.813.012,3.629-1.145A2.452,2.452,0,0,0,85.078,20.379Zm-1.51-2.143c1.62.1,3.263.536,4.1,2.046a2.522,2.522,0,0,1-.3,2.606,4.074,4.074,0,0,1-2.411,1.169,32.451,32.451,0,0,0,3.945,4.48,2.078,2.078,0,0,0,1.1.293c-.012.188-.012.417-.024.609l-3.007-.024-.488-.122a25.311,25.311,0,0,1-2.947-3.751l-.791-1.169H81.534s-.048,2.24.025,3.556c.073.3.048.73.4.852a9.27,9.27,0,0,0,1.327.039,1.566,1.566,0,0,1,0,.595H77.76a1.355,1.355,0,0,1-.037-.585,4.277,4.277,0,0,0,1.182-.1l.073-.2c.024-.511-.049-7.33-.049-7.33a10.641,10.641,0,0,0-.183-2.07c-.243-.438-.8-.28-1.254-.316h-.323c-.012-.183.015-.381.006-.6Z"
  />
  <path
    fill="currentColor"
    d="M127.331,20.964a5.883,5.883,0,0,0-4.895-1.948c-.207.06-.573-.1-.621.206l.036,7.586a8.624,8.624,0,0,0,.2,1.693.491.491,0,0,0,.378.232,7.58,7.58,0,0,0,4.224-1,3.875,3.875,0,0,0,1.814-3.215A5.475,5.475,0,0,0,127.331,20.964Zm-1.425-2.533a6.151,6.151,0,0,1,4.822,3.19,5.483,5.483,0,0,1,.1,3.982,5.763,5.763,0,0,1-3.7,3.41,13.057,13.057,0,0,1-4.309.474l-4.713-.024c.012-.186.012-.551.012-.551.411-.03,1.06.174,1.217-.314l-.024-7.293a9.3,9.3,0,0,0-.171-2.119c-.121-.365-.535-.256-.827-.317h-.774c0-.277,0-.277.006-.584l6.54-.012Z"
  />
  <path
    fill="currentColor"
    d="M171,18.37c0,.253.012.375.012.6a3.042,3.042,0,0,0-1.145.1l-.073.11.013,7a19.132,19.132,0,0,0,.145,2.241.76.76,0,0,0,.281.39l.207.048a21.69,21.69,0,0,0,4.285-.256,2.319,2.319,0,0,0,1.389-.828.371.371,0,0,1,.4-.036c.147.268-.061.536-.1.792l-.366,1.022-.073.049-9.888-.03c0-.183,0-.386-.006-.6a4.924,4.924,0,0,0,1.151-.087c.146-.17.037-.413.085-.584l-.024-6.916a7.019,7.019,0,0,0-.243-2.229c-.244-.219-.6-.146-.914-.182-.195-.061-.551.036-.551-.04,0-.148.015-.395.015-.569Z"
  />
  <path
    fill="currentColor"
    d="M185.608,18.406l.985.013c-.036.535-.146,1.059-.23,1.595-.049.073-.086.194-.195.219-.147.012-.293-.012-.341-.146a.782.782,0,0,0-.207-.426,10.883,10.883,0,0,0-4.274-.56c-.293.036-.695-.085-.877.158l.024,3.9.1.036a22.277,22.277,0,0,0,3.848-.158c.353-.122.219-.524.267-.8.024-.121-.048-.228.062-.365.206.012.392-.025.62-.015v3.1a6.278,6.278,0,0,1-.655.008,2.335,2.335,0,0,0-.1-.812,2.608,2.608,0,0,0-1.071-.244c-1.011-.012-2.009-.048-3.032-.036l-.061.061a36.074,36.074,0,0,0,.147,4.505.612.612,0,0,0,.279.4c.731.085,1.534.037,2.253.048a7.435,7.435,0,0,0,3.228-.657c.267-.17.4-.646.779-.487.181.207.011.463-.013.682L186.7,29.6l-.194.024-9.766-.036-.012-.572c.378-.086.827.036,1.169-.11l.072-.158-.012-7.513a11.177,11.177,0,0,0-.169-1.949.707.707,0,0,0-.256-.243,11.158,11.158,0,0,0-1.3-.049,1.294,1.294,0,0,1-.025-.572l.1-.049,1.522.012Z"
  />
  <path
    fill="currentColor"
    d="M192.131,18.41l-.008.606a4.8,4.8,0,0,0-1.206.06,2.107,2.107,0,0,0,.438.889l2.386,3.629.232.292.072-.049a34.239,34.239,0,0,0,2.57-4.359.478.478,0,0,0,.036-.316l-.109-.086-1.382-.057c0-.238,0-.609,0-.609l3.914.033a4.6,4.6,0,0,1,.013.573c-.442-.013-1.024-.1-1.267.426L194.678,24.3l-.3.463.013,3.141c.134.317-.024.926.426,1.072a9.493,9.493,0,0,0,1.321.058,4.056,4.056,0,0,1-.006.587l-5.5-.024c0-.131-.013-.56-.013-.56.438-.049,1.23.243,1.255-.39l-.025-3.786c-1.193-1.705-2.277-3.483-3.5-5.2a2.3,2.3,0,0,0-.669-.621l-1-.037c0-.213-.012-.609-.012-.609Z"
  />
  <path
    fill="currentColor"
    d="M68.81,32.45a8.126,8.126,0,0,1,.073,1.716.483.483,0,0,1-.463.049c-.219-.28-.267-.694-.657-.864a4.52,4.52,0,0,0-2.192-.475,2.954,2.954,0,0,0-2.886,1.546,1.57,1.57,0,0,0,.353,1.461A5.8,5.8,0,0,0,65.3,37.04c1.765.658,4.311.962,4.749,3.288a3.4,3.4,0,0,1-1.425,3.287c-2.192,1.608-5.553,1.3-8.073.622a17.52,17.52,0,0,1-.4-1.98c.025-.11.037-.256.171-.28a.52.52,0,0,1,.511.336c.475,1.132,1.717,1.4,2.789,1.594a5.716,5.716,0,0,0,2.849-.292,2.281,2.281,0,0,0,1.522-2,2.024,2.024,0,0,0-1.376-1.778c-1.79-.889-3.97-.889-5.467-2.435a2.984,2.984,0,0,1-.475-2.777c.475-1.339,1.96-1.924,3.166-2.313A9.943,9.943,0,0,1,68.81,32.45Z"
  />
  <path
    fill="currentColor"
    d="M111.914,32.823a1.226,1.226,0,0,1,.013.634,7.16,7.16,0,0,0-1.254.1l-.073.134v6.795a3.823,3.823,0,0,0,1.389,3.215,5.177,5.177,0,0,0,3.64.5,3.639,3.639,0,0,0,2.69-1.851,4.53,4.53,0,0,0,.428-1.509l-.025-5.175a9.434,9.434,0,0,0-.256-1.912c-.109-.207-.317-.231-.511-.255l-1.133-.025a1.894,1.894,0,0,1,0-.646l4.226.013a3.168,3.168,0,0,1,.036.6l-.049.048a5.8,5.8,0,0,0-1.229.086l-.061.085-.012,7.342a4.24,4.24,0,0,1-1.974,3.178l-.839.475a9.746,9.746,0,0,1-4.8.463c-1.595-.243-3.385-.914-3.97-2.618a5.915,5.915,0,0,1-.244-1.766l-.011-5.321a4.793,4.793,0,0,0-.256-1.753l-.2-.146a10.444,10.444,0,0,0-1.388-.037l-.049-.049v-.584l.049-.024Z"
  />
  <path
    fill="currentColor"
    d="M81.278,37.844A32.153,32.153,0,0,0,79.7,40.852v.073c.925.012,1.936.036,2.861-.013C82.143,39.877,81.742,38.842,81.278,37.844Zm1.791-2.106c.085.279-.439.328-.293.645l.366,1.047,2.484,5.638c.207.426.39.95.852,1.169l.706.049c-.007.121.008.311.013.462-1.42.017-2.912.024-4.238.012.017-.155,0-.322.012-.487a2.829,2.829,0,0,0,.962-.1l-.024-.256-.986-2.326-.074-.061H79.392l-.1.122a9.324,9.324,0,0,0-.877,2.363c.049.28.366.194.561.231l.839.024c.008.149.008.3.013.463-1.154.02-2.3.024-3.434.012,0-.174-.024-.329-.012-.475.329-.073.8.122.974-.28l1.79-3.567,2.07-4,.3-.584c.414-.122.877-.159,1.3-.243C82.923,35.616,83.044,35.616,83.069,35.738Z"
  />
  <path
    fill="currentColor"
    d="M173.955,35.965a8.811,8.811,0,0,1,.121,1.158c-.036.084-.073.218-.194.218-.439.037-.293-.536-.682-.645a3.258,3.258,0,0,0-3.069,0,1.289,1.289,0,0,0-.657,1.12c.121,1.1,1.376,1.254,2.191,1.6,1.266.414,2.959.852,3.227,2.4a2.66,2.66,0,0,1-1.29,2.606c-1.583,1-3.909.767-5.663.3a8.959,8.959,0,0,1-.329-1.388.21.21,0,0,1,.171-.207c.366-.134.366.329.548.5a3.866,3.866,0,0,0,3.422.767,2.01,2.01,0,0,0,1.582-1.327,1.351,1.351,0,0,0-.218-1.059,4.028,4.028,0,0,0-1.717-.937c-1.28-.488-3.13-.707-3.459-2.338a2.084,2.084,0,0,1,.731-2.046A6.146,6.146,0,0,1,173.955,35.965Z"
  />
  <path
    fill="currentColor"
    d="M74.886,35.847c.853.024,1.729-.036,2.545.049l.548,1.363c-.024.074-.085.171-.183.171-.4.048-.438-.475-.767-.573a7.01,7.01,0,0,0-2.922-.4l-.037.036.012,6.941c.1.28.025.694.366.792a13.057,13.057,0,0,0,1.374.03c.023.158,0,.329.015.487l-5.286-.006c0-.154,0-.334.012-.487A9.163,9.163,0,0,0,72,44.176l.061-.11V36.541l-.037-.085a7.528,7.528,0,0,0-2.861.34c-.4.086-.463.78-.95.585a.258.258,0,0,1-.012-.329L68.64,35.9c.206-.061.474.012.681-.061Z"
  />
  <path
    fill="currentColor"
    d="M94.5,35.908a13.491,13.491,0,0,1,.535,1.388.225.225,0,0,1-.207.159c-.328.036-.341-.366-.608-.488a3.605,3.605,0,0,0-1.389-.414,12.032,12.032,0,0,0-1.619-.085l-.049.036.012,7.038c.11.22.012.536.268.683a11.421,11.421,0,0,0,1.449.061,3.977,3.977,0,0,0,.005.479l-5.241-.005-.012-.462a9.238,9.238,0,0,0,1.449-.086l.073-.219-.012-7.452c-.012-.085-.109-.085-.183-.085a6.743,6.743,0,0,0-2.91.487c-.28.17-.353.645-.743.463-.109-.1-.036-.256,0-.354l.427-1.108c.158-.109.413-.036.608-.073l7.623.012Z"
  />
  <path
    fill="currentColor"
    d="M103.672,35.908a11.058,11.058,0,0,1-.171,1.278c-.061.073-.073.171-.2.171-.1-.013-.231-.024-.255-.146-.025-.415-.511-.39-.78-.536a13.563,13.563,0,0,0-3.385-.171l-.085.171.012,2.947.073.048a13.238,13.238,0,0,0,3.142-.182c.219-.2.11-.549.158-.8-.013-.048.049-.06.085-.06l.439.023c.073.9-.012,1.571.011,2.412a1.5,1.5,0,0,1-.523.012c-.1-.231.11-.707-.292-.768a21.251,21.251,0,0,0-3.057-.1l-.036.049a24.061,24.061,0,0,0,.1,3.6.5.5,0,0,0,.207.292,9.617,9.617,0,0,0,4.335-.45c.207-.146.365-.524.658-.4.146.17-.012.353-.024.536l-.317.925-.049.037-7.9-.013c0-.179,0-.332-.013-.474.367-.055.8.121.974-.183l.013-1.194V38.257a5,5,0,0,0-.183-1.728l-.134-.11c-.329-.061-.706-.024-1.06-.061a.9.9,0,0,1,.037-.475l7.294.013Z"
  />
  <path
    fill="currentColor"
    d="M123.275,35.88l3.471,3.251,3.154,2.947.048-.073c.049-1.425-.024-3.02-.048-4.238-.086-.438.024-.949-.256-1.3a3.8,3.8,0,0,0-1.108-.121.5.5,0,0,1,.012-.475c1.059-.049,2,.024,3.069,0,.1.11.048.317.036.463-.28.049-.584.024-.877.072l-.085.086-.012,8.316a.208.208,0,0,1-.244.074l-.206-.123-4.652-4.383-2.923-2.7h-.035a52.179,52.179,0,0,0,.108,6.187.681.681,0,0,0,.256.353,5.573,5.573,0,0,0,1.022.036c0,.192.009.323.021.489-1.107.009-2.089,0-3.149,0,.006-.19.013-.319.012-.488a2.294,2.294,0,0,0,.9-.073l.061-.146-.036-6.405a1.425,1.425,0,0,0-.536-1.132,2.216,2.216,0,0,0-.913-.158.786.786,0,0,1-.037-.451l.11-.048C121.45,35.832,122.277,35.843,123.275,35.88Z"
  />
  <path
    fill="currentColor"
    d="M136.183,35.88a.836.836,0,0,1,.037.463c-.317.121-.828-.135-.987.219l.013,6.331a4.6,4.6,0,0,0,.146,1.181c.206.3,1.157.183,1.241.244a3.913,3.913,0,0,1,0,.461l-4.331-.023a4.376,4.376,0,0,1,.013-.486c.28-.037.718.073.925-.147l.013-.535-.013-5.954a2.655,2.655,0,0,0-.219-1.145c-.317-.207-.755-.1-1.145-.146a1.831,1.831,0,0,1-.024-.451l.048-.024Z"
  />
  <path
    fill="currentColor"
    d="M140.75,35.9c.036.122.06.378-.038.476a3.8,3.8,0,0,0-.839.036c-.074.036-.061.146-.025.2l2.971,5.7.049.035.1-.1,2.18-4.395a4.21,4.21,0,0,0,.4-1.279c0-.085-.109-.133-.182-.158-.341-.061-.706,0-1.059-.036a.569.569,0,0,1,.024-.488l3.154.012c.1.171,0,.268.025.451-.269.073-.609-.024-.865.1l-.39.731L142.405,45a.261.261,0,0,1-.316.073l-.159-.219L138.3,37.731c-.354-.5-.536-1.4-1.34-1.351-.146-.025-.4.061-.377-.134.012-.122-.061-.293.048-.366C137.985,35.9,139.4,35.88,140.75,35.9Z"
  />
  <path
    fill="currentColor"
    d="M156.384,35.941a9.847,9.847,0,0,1-.207,1.327c-.049.134-.219.11-.3.073-.183-.121-.134-.451-.414-.487a10.994,10.994,0,0,0-3.811-.329c-.086,0-.086.086-.121.147l.011,2.946.073.061a16.957,16.957,0,0,0,3.069-.146c.293-.17.17-.56.219-.864a.834.834,0,0,1,.548.023v2.376a1.512,1.512,0,0,1-.524.011c-.1-.182.085-.572-.183-.706a13.9,13.9,0,0,0-2.471-.17l-.694.024-.048.11a28.827,28.827,0,0,0,.146,3.579c.085.39.523.256.816.3a10.421,10.421,0,0,0,3.36-.354c.4-.06.548-.645.987-.547.121.158.012.352-.014.523l-.34.951-.134.023-7.778-.023a4.459,4.459,0,0,1,0-.476c.339-.071.926.183.987-.292l-.037-6.819c-.109-.255-.013-.633-.316-.755a5.635,5.635,0,0,0-1.024-.06.908.908,0,0,1-.024-.475l.123-.025Z"
  />
  <path
    fill="currentColor"
    d="M163.227,37.658a2.721,2.721,0,0,0-2.667-1.12c-.048.024-.109.024-.146.085-.012,1.291-.036,2.4.012,3.6,1.023,0,2.143.073,2.789-.8A1.884,1.884,0,0,0,163.227,37.658Zm-.244-1.62a2.909,2.909,0,0,1,2.46,2,1.959,1.959,0,0,1-.8,1.923,5.119,5.119,0,0,1-1.487.561l.062.133a35.292,35.292,0,0,0,2.666,3.19,1.58,1.58,0,0,0,1.181.511.851.851,0,0,1,.025.463c-.8.05-1.644.037-2.447.013-.451-.036-.743-.548-1.048-.841-.816-1.01-1.474-2.13-2.24-3.2a4.764,4.764,0,0,0-.926.012c-.048.877-.024,1.8-.012,2.691.061.28.012.67.317.8.328.06.714.016,1.043.052,0,.224,0,.308.015.48l-4.361-.009c0-.122-.022-.328-.022-.474.269-.073.659.024.926-.1l.062-.3-.025-6.5c-.085-.255.036-.8-.341-.974a9.4,9.4,0,0,0-1.011-.061.8.8,0,0,1-.024-.45l.1-.049C159.051,36.013,161.084,35.8,162.983,36.038Z"
  />
  <path
    fill="currentColor"
    d="M179.2,35.978a1.373,1.373,0,0,1,.023.45c-.3.146-.828-.122-.985.244l.012,6.258a3.458,3.458,0,0,0,.207,1.34,3.343,3.343,0,0,0,1.169.121l.012.463-.049.025-4.311-.012c-.007-.179-.015-.293-.011-.488.316-.073.768.11.962-.158l.036-.682-.036-5.358a6.486,6.486,0,0,0-.122-1.473c-.28-.365-.829-.2-1.242-.256a1.093,1.093,0,0,1,.012-.487Z"
  />
  <path
    fill="currentColor"
    d="M188.688,36.013l.036.025c.184.426.39.877.536,1.327a.212.212,0,0,1-.133.2c-.366.073-.39-.3-.646-.452a2.848,2.848,0,0,0-1.3-.425,10.547,10.547,0,0,0-1.753-.086l-.024.037.024,6.9c.11.256-.013.706.34.828.439.061.938-.013,1.39.061.007.161.007.313,0,.463l-5.225-.012a1.328,1.328,0,0,1-.012-.488,13.987,13.987,0,0,0,1.424-.048,1.314,1.314,0,0,0,.086-.622l-.048-7.1-.038-.049a7.65,7.65,0,0,0-2.837.366c-.4.1-.523.876-.961.5a7.136,7.136,0,0,1,.462-1.412c.183-.085.427-.013.633-.061l4.652.025Z"
  />
  <path
    fill="currentColor"
    d="M193.741,36.026a.881.881,0,0,1-.024.475l-.9.037c-.085.1.049.17.049.255.767,1.169,1.559,2.338,2.362,3.495h.049a28.08,28.08,0,0,0,2.045-3.373c.012-.11.11-.268-.024-.353-.353-.086-.768-.012-1.132-.061a1.335,1.335,0,0,1-.025-.45l.074-.038c1.095-.023,2.008.013,3.092.025a.935.935,0,0,1-.025.487,2.017,2.017,0,0,0-.766.086l-.414.535-2.545,3.86.012,2.557c.1.28.013.707.353.828a6.576,6.576,0,0,0,.986.037c-.011.238.018.321,0,.473l-4.326,0c0-.154-.013-.306-.013-.475a4.591,4.591,0,0,0,.926-.074l.048-.145-.011-3.117-2.764-4.043c-.183-.17-.329-.451-.585-.524-.231-.036-.5,0-.743-.036a1.446,1.446,0,0,1-.024-.451l.073-.048Z"
  />
  <path
    fill="currentColor"
    d="M198.674,46.924A1.324,1.324,0,1,1,200,45.6,1.321,1.321,0,0,1,198.674,46.924Zm0-2.429a1.105,1.105,0,1,0,1.106,1.1A1.1,1.1,0,0,0,198.674,44.5Zm-.579.414h.628c.352,0,.471.219.471.374a.4.4,0,0,1-.405.409V45.7c.121.043.211.166.33.356l.173.277h-.281l-.126-.223c-.179-.32-.247-.382-.423-.382h-.137v.605h-.23Zm.561.622c.175,0,.294-.069.294-.217,0-.129-.1-.211-.254-.211h-.371v.428Z"
  />
</svg>
