<svg
  xmlns="http://www.w3.org/2000/svg"
  viewBox="0 0 200 50"
  enable-background="new 0 0 200 50"
>
  <g fill="currentColor">
    <path
      d="M18.4,12c0,2.7,2.3,4.7,5,4.7c2.6,0,5.3-2,5.3-4.7V1.5l1.4-1.4h-4.2l1.4,1.4V12c0,1.9-1.5,3.4-3.4,3.4
	c-1.9,0-3.6-1.5-3.6-3.4V1.5l1.4-1.4H17l1.4,1.4L18.4,12"
    />
    <path
      d="m43.9.1l1.4 1.4v10.4l-7.4-11.8h-3.4l1.5 1.4v13.5l-1.4 1.4h4.3l-1.5-1.4v-12.2l8.8 13.7h.5v-15l1.4-1.4h-4.2"
    />
    <path
      d="m68.7 16.4l4.7-15 1.3-1.3h-3.9l1.3 1.3-3.4 11.3-3.4-11.3 1.3-1.3h-4.6l1.3 1.3 4.6 15h.8"
    />
    <path
      d="m123.4 16.4h4.4l-1.3-1.3v-13.7l1.3-1.3h-4.4l1.3 1.3v13.7l-1.3 1.3"
    />
    <path
      d="m170 16.6c1 0 2.4-.7 3.4-1.5 1.5-1.4 2.4-3.7 2.4-5.8 0-1.9-1-3.2-2.9-3.2-.6 0-1.5.3-2.5.8-1.6.9-3.3 3.1-3.3 6.3 0 1.6.8 3.4 2.9 3.4m1.4-9.5c.2-.1.5-.2.8-.2 1.1 0 1.8.9 1.8 2.6 0 3-1.5 5.7-2.5 6-.2.1-.5.2-.7.2-1.3 0-1.8-1.4-1.8-3.1-.1-3.3 1.7-5.2 2.4-5.5"
    />
    <path
      d="m53.3 16.4h4.4l-1.3-1.3v-13.7l1.3-1.3h-4.4l1.3 1.3v13.7l-1.3 1.3"
    />
    <path
      d="m78.7 16.4h9.7v-3l-1.7 1.8h-4.9v-6.9h3.7l1.3 1.3v-3.8l-1.3 1.3h-3.7v-5.8h4.9l1.7 1.7v-3h-9.7l1.3 1.3v13.7l-1.3 1.4"
    />
    <path
      d="m155.6.1l1.3 1.3-3.4 6.1-3.3-6.1 1.3-1.3h-4.6l1.3 1.3 4.1 7.4v6.3l-1.3 1.3h4.4l-1.3-1.3v-6.3l4.2-7.4 1.4-1.3h-4.1"
    />
    <path
      d="m98.9 8.8l3.9 7.6h2.7l-1.3-1.3-3.6-6.7c1.8-.6 3.1-2.3 3.1-3.8 0-2.8-2.6-4.5-5.3-4.5h-5.1l1.3 1.3v13.7l-1.3 1.3h4.4l-1.3-1.3v-6.3h2.5m-2.5-7.5h2c1.7 0 3.1 1.5 3.1 3.3 0 1.7-1.4 3-3.1 3h-2v-6.3"
    />
    <path
      d="m116.5 8.7l-3.3-2.4c-1.2-.9-1.8-2-1.8-2.8 0-1.7 1.5-2.3 2.3-2.3.5 0 .8.2 1 .2l1.4 1.6 1.5-2.3-3.2-.6c-.1-.1-.3-.1-.7-.1-2.8 0-4.1 2.4-4.1 4 0 1.2.6 2.7 2.1 3.7l3.3 2.4c.9.6 1.2 1.6 1.2 2.4 0 1.4-.9 2.9-2.7 2.9-.4 0-.8-.1-1.1-.2l-1.5-1.8-1.4 2.5 3.1.6c0 0 .5.1 1 .1 2 0 4.5-1.7 4.5-4.8-.1-1.5-.8-2.5-1.6-3.1"
    />
    <path
      d="m182.3 7.5l2.3-.2.5-.6h-2.7c.7-4.2 1.3-5.5 2.2-5.5.7 0 1.3.3 1.8.8.2.2.4.2.6 0 .2-.2.5-.5.5-.8 0-.5-.6-1-1.4-1-1.3 0-2.7.8-3.7 1.9-.9 1.1-1.5 2.8-1.8 4.7h-1.5l-.6.6.1.2h1.9c-.3 2.1-.6 3.9-1 6.7-.6 4.3-1.1 5.8-1.6 6.2-.1.1-.4.2-.6.2-.3 0-.7-.2-1-.3-.3-.1-.5 0-.6.2-.2.2-.4.5-.4.8 0 .5.6.7 1 .7.4 0 1.5-.4 2.5-1.6.8-1 1.8-3.2 2.7-8.4.3-1.1.4-2.1.8-4.6"
    />
    <path
      d="M138.9,1.3h3.1l1.7,1.7v-3h-11.5v3l1.8-1.7h3.1v13.8l-1.3,1.3h4.4l-1.3-1.3V1.3z"
    />
    <path
      d="m142.6 31.5l2.4-2.3h4.1v18.6l-1.7 1.8h5.9l-1.7-1.8v-18.6h4.1l2.3 2.3v-4h-15.4v4"
    />
    <path
      d="m194.3 27.6l1.9 1.9v13.9l-9.9-15.8h-4.5l1.9 1.9v18.2l-1.9 1.9h5.7l-1.9-1.9v-16.5l11.6 18.4h.9v-20.1l1.9-1.9h-5.7"
    />
    <path
      d="m168.9 27.1c-5.6 0-8.8 5.9-8.8 11.5 0 5.6 3.2 11.5 8.8 11.5 5.6 0 8.8-5.9 8.8-11.5 0-5.6-3.1-11.5-8.8-11.5m0 21.2c-4.4 0-5.9-5.2-5.9-9.8 0-4.5 1.5-9.8 5.9-9.8 4.4 0 5.9 5.2 5.9 9.8.1 4.6-1.4 9.8-5.9 9.8"
    />
    <path
      d="m135.5 39.5v7.1c-.5.5-1.6 1.6-3.6 1.6-4.9 0-7.3-4.9-7.3-9.6 0-4.8 3.1-9.6 7.3-9.6 1.1 0 1.9.3 2.7 1l2.4 2.4v-3.8c-1.3-.7-2.6-1.3-5.1-1.3-6 0-10.2 5.4-10.2 11.3 0 5.8 4.2 11.3 10.2 11.3 3.4 0 4.8-.8 6-1.6v-8.7l1.7-1.7h-5.9l1.8 1.6"
    />
    <path
      d="m82.7 27.6h-5.9l1.8 1.7v7.6h-9.2v-7.6l1.7-1.7h-5.9l1.7 1.7v18.5l-1.7 1.8h5.9l-1.7-1.8v-9.3h9.2v9.3l-1.8 1.8h5.9l-1.7-1.8v-18.5l1.7-1.7"
    />
    <path
      d="m22.9 27.6l1.7 1.7-4.6 15.2-4.5-15.2 1.7-1.7h-6.2l1.7 1.7.4 1.5-4.1 13.7-4.5-15.2 1.7-1.7h-6.2l1.8 1.7 6.2 20.2h1l5-15.9 4.9 15.9h1.1l6.3-20.2 1.8-1.7h-5.2"
    />
    <path
      d="m58 39.2l-4.5-3.2c-1.6-1.2-2.4-2.6-2.4-3.8 0-2.3 2-3.1 3.2-3.1.6 0 1.1.3 1.4.3l1.9 2.1 2-3.1-4.3-.8c-.3-.1-.5-.1-1-.1-3.8 0-5.6 3.3-5.6 5.4 0 1.7.9 3.6 2.8 5l4.5 3.2c1.2.9 1.6 2.1 1.6 3.2 0 1.9-1.2 3.9-3.6 3.9-.6 0-1.1-.1-1.5-.3l-2.1-2.5-1.9 3.4 4.2.8c0 0 .7.1 1.3.1 2.6 0 6.1-2.2 6.1-6.4-.1-2-1.1-3.4-2.1-4.1"
    />
    <path
      d="m114.9 29.5v13.9l-9.9-15.8h-4.5l1.8 1.9v18.2l-1.8 1.9h5.7l-1.9-1.9v-16.5l11.6 18.3h.9v-20l1.9-1.9h-5.7l1.9 1.9"
    />
    <path
      d="m37.1 27.6h-1.1l-7 20.1-1.8 1.8h5.3l-1.7-1.7 1.6-4.7h7.2l1.5 4.7-1.7 1.7h6.2l-1.7-1.8-6.8-20.1m-4.1 13.9l3.1-9.1 3 9.1h-6.1"
    />
    <path
      d="m94.5 27.6h-5.9l1.7 1.7v18.5l-1.7 1.8h5.9l-1.7-1.8v-18.5l1.7-1.7"
    />
  </g>
</svg>
